HIERARCHY
ROOT hip
{
  OFFSET 0 0 0
  CHANNELS 6 Xposition Yposition Zposition Zrotation Yrotation Xrotation
  JOINT abdomen
  {
    OFFSET 0 20.6881 -0.73152
    CHANNELS 3 Zrotation Xrotation Yrotation
    JOINT chest
    {
      OFFSET 0 11.7043 -0.48768
      CHANNELS 3 Zrotation Xrotation Yrotation
      JOINT neck
      {
        OFFSET 0 22.1894 -2.19456
        CHANNELS 3 Zrotation Xrotation Yrotation
        JOINT head
        {
          OFFSET -0.24384 7.07133 1.2192
          CHANNELS 3 Zrotation Xrotation Yrotation
          JOINT leftEye
          {
            OFFSET 4.14528 8.04674 8.04672
            CHANNELS 3 Zrotation Xrotation Yrotation
            End Site
            {
              OFFSET 1 0 0
            }
          }
          JOINT rightEye
          {
            OFFSET -3.6576 8.04674 8.04672
            CHANNELS 3 Zrotation Xrotation Yrotation
            End Site
            {
              OFFSET 1 0 0
            }
          }
        }
      }
      JOINT rCollar
      {
        OFFSET -2.68224 19.2634 -4.8768
        CHANNELS 3 Zrotation Xrotation Yrotation
        JOINT rShldr
        {
          OFFSET -8.77824 -1.95073 1.46304
          CHANNELS 3 Zrotation Xrotation Yrotation
          JOINT rForeArm
          {
            OFFSET -28.1742 -1.7115 0.48768
            CHANNELS 3 Zrotation Xrotation Yrotation
            JOINT rHand
            {
              OFFSET -22.5879 0.773209 7.07136
              CHANNELS 3 Zrotation Xrotation Yrotation
              JOINT rThumb1
              {
                OFFSET -1.2192 -0.487915 3.41376
                CHANNELS 3 Zrotation Xrotation Yrotation
                JOINT rThumb2
                {
                  OFFSET -3.37035 -0.52449 3.41376
                  CHANNELS 3 Zrotation Xrotation Yrotation
                  End Site
                  {
                    OFFSET -1.78271 -1.18214 1.43049
                  }
                }
              }
              JOINT rIndex1
              {
                OFFSET -7.75947 0.938293 5.60832
                CHANNELS 3 Zrotation Xrotation Yrotation
                JOINT rIndex2
                {
                  OFFSET -2.54057 -0.884171 1.56538
                  CHANNELS 3 Zrotation Xrotation Yrotation
                  End Site
                  {
                    OFFSET -1.62519 -0.234802 1.16502
                  }
                }
              }
              JOINT rMid1
              {
                OFFSET -8.24714 1.18213 3.41376
                CHANNELS 3 Zrotation Xrotation Yrotation
                JOINT rMid2
                {
                  OFFSET -3.10165 -0.590103 1.0647
                  CHANNELS 3 Zrotation Xrotation Yrotation
                  End Site
                  {
                    OFFSET -2.48547 -0.328903 0.83742
                  }
                }
              }
              JOINT rRing1
              {
                OFFSET -8.82822 0.546677 1.51678
                CHANNELS 3 Zrotation Xrotation Yrotation
                JOINT rRing2
                {
                  OFFSET -2.60934 -0.819778 -0.0198488
                  CHANNELS 3 Zrotation Xrotation Yrotation
                  End Site
                  {
                    OFFSET -2.33842 -0.294052 0.168128
                  }
                }
              }
              JOINT rPinky1
              {
                OFFSET -8.27202 -0.0477905 -0.4584
                CHANNELS 3 Zrotation Xrotation Yrotation
                JOINT rPinky2
                {
                  OFFSET -1.82734 -0.647385 -0.700984
                  CHANNELS 3 Zrotation Xrotation Yrotation
                  End Site
                  {
                    OFFSET -1.69225 -0.51767 -0.607171
                  }
                }
              }
            }
          }
        }
      }
      JOINT lCollar
      {
        OFFSET 2.68224 19.2634 -4.8768
        CHANNELS 3 Zrotation Xrotation Yrotation
        JOINT lShldr
        {
          OFFSET 8.77824 -1.95073 1.46304
          CHANNELS 3 Zrotation Xrotation Yrotation
          JOINT lForeArm
          {
            OFFSET 28.1742 -1.7115 0.48768
            CHANNELS 3 Zrotation Xrotation Yrotation
            JOINT lHand
            {
              OFFSET 22.5879 0.773209 7.07136
              CHANNELS 3 Zrotation Xrotation Yrotation
              JOINT lThumb1
              {
                OFFSET 1.2192 -0.487915 3.41376
                CHANNELS 3 Zrotation Xrotation Yrotation
                JOINT lThumb2
                {
                  OFFSET 3.37035 -0.52449 3.41376
                  CHANNELS 3 Zrotation Xrotation Yrotation
                  End Site
                  {
                    OFFSET 1.78271 -1.18214 1.43049
                  }
                }
              }
              JOINT lIndex1
              {
                OFFSET 7.75947 0.938293 5.60832
                CHANNELS 3 Zrotation Xrotation Yrotation
                JOINT lIndex2
                {
                  OFFSET 2.54057 -0.884171 1.56538
                  CHANNELS 3 Zrotation Xrotation Yrotation
                  End Site
                  {
                    OFFSET 1.62519 -0.234802 1.16502
                  }
                }
              }
              JOINT lMid1
              {
                OFFSET 8.24714 1.18213 3.41376
                CHANNELS 3 Zrotation Xrotation Yrotation
                JOINT lMid2
                {
                  OFFSET 3.10165 -0.590103 1.0647
                  CHANNELS 3 Zrotation Xrotation Yrotation
                  End Site
                  {
                    OFFSET 2.48547 -0.328903 0.83742
                  }
                }
              }
              JOINT lRing1
              {
                OFFSET 8.82822 0.546677 1.51678
                CHANNELS 3 Zrotation Xrotation Yrotation
                JOINT lRing2
                {
                  OFFSET 2.60934 -0.819778 -0.0198488
                  CHANNELS 3 Zrotation Xrotation Yrotation
                  End Site
                  {
                    OFFSET 2.33842 -0.294052 0.168128
                  }
                }
              }
              JOINT lPinky1
              {
                OFFSET 8.27202 -0.0477905 -0.4584
                CHANNELS 3 Zrotation Xrotation Yrotation
                JOINT lPinky2
                {
                  OFFSET 1.82734 -0.647385 -0.700984
                  CHANNELS 3 Zrotation Xrotation Yrotation
                  End Site
                  {
                    OFFSET 1.69225 -0.51767 -0.607171
                  }
                }
              }
            }
          }
        }
      }
    }
  }
  JOINT rButtock
  {
    OFFSET -8.77824 4.35084 1.2192
    CHANNELS 3 Zrotation Xrotation Yrotation
    JOINT rThigh
    {
      OFFSET 0 -1.70687 -2.19456
      CHANNELS 3 Zrotation Xrotation Yrotation
      JOINT rShin
      {
        OFFSET 0 -36.8199 0.73152
        CHANNELS 3 Zrotation Xrotation Yrotation
        JOINT rFoot
        {
          OFFSET 0.73152 -45.1104 -5.12064
          CHANNELS 3 Zrotation Xrotation Yrotation
          End Site
          {
            OFFSET -1.1221 -3.69964 12.103
          }
        }
      }
    }
  }
  JOINT lButtock
  {
    OFFSET 8.77824 4.35084 1.2192
    CHANNELS 3 Zrotation Xrotation Yrotation
    JOINT lThigh
    {
      OFFSET 0 -1.70687 -2.19456
      CHANNELS 3 Zrotation Xrotation Yrotation
      JOINT lShin
      {
        OFFSET 0 -36.8199 0.73152
        CHANNELS 3 Zrotation Xrotation Yrotation
        JOINT lFoot
        {
          OFFSET -0.73152 -45.1104 -5.12064
          CHANNELS 3 Zrotation Xrotation Yrotation
          End Site
          {
            OFFSET 1.1221 -3.69964 12.103
          }
        }
      }
    }
  }
}
MOTION
Frames:	4
Frame Time:	0.00833333
-60.3793 84.1002 31.5122 0.0 0.0 0.0 -1.51927 -0.00282943 -0.0413936 -0.418701 0.00102617 -0.0725116 -9.45679e-15 -7.95139e-16 9.93924e-17 -2.84355e-14 3.18055e-15 4.93856e-16 -0.0 0.0 0.0 -0.0 0.0 0.0 -4.92173e-15 -5.62964e-17 2.98177e-16 -9.82393e-14 -1.05604e-15 2.38542e-15 -1.73032e-12 4.74698e-13 2.54444e-14 -1.97521e-11 -7.29192e-13 2.8625e-13 -4.66025e-11 -5.57221e-13 7.09264e-13 -8.04804e-11 -9.66889e-13 1.21179e-12 -4.65971e-11 -5.54212e-13 6.99722e-13 7.73091 5.47488 0.417314 -4.6602e-11 -5.56995e-13 7.09264e-13 2.90554 0.965183 0.102902 -4.65907e-11 -5.56796e-13 7.05288e-13 10.2786 0.731801 0.0259123 -4.66057e-11 -5.57392e-13 7.12444e-13 2.22167 -0.733487 -0.20892 -5.01782e-15 -5.86259e-17 -9.93923e-17 -1.02195e-13 -1.05604e-15 1.98785e-16 -1.72103e-12 -5.55802e-13 6.04305e-14 -1.97396e-11 3.02252e-13 2.70347e-13 -4.65582e-11 -5.54102e-13 7.06083e-13 -8.03989e-11 -9.57347e-13 1.23326e-12 -4.65625e-11 -5.52621e-13 7.15625e-13 -7.73091 5.47488 -0.417314 -4.65602e-11 -5.53417e-13 7.09264e-13 -2.90554 0.965183 -0.102902 -4.65699e-11 -5.53715e-13 7.09264e-13 -10.2786 0.731801 -0.0259123 -4.65494e-11 -5.53019e-13 7.02903e-13 -2.22167 -0.733487 0.20892 -2.03217e-16 0.0 -3.88251e-19 -0.640538 -1.92323 -0.00643633 -0.00925467 -2.07856 -0.076428 -0.512153 3.99733 0.140312 2.03217e-16 0.0 3.88251e-19 -1.66974 -6.49782 0.154696 -0.00231059 6.208 -0.0679832 0.534046 0.285488 -0.0665681
-60.6167 81.8404 25.926 -26.9126 82.6769 -8.222 -1.05824 2.79443 0.750345 0.97633 0.707376 0.192044 0.40634 0.677271 -0.312804 -2.0088 7.27567 0.658309 -0.0 0.0 0.0 -0.0 0.0 0.0 -3.2733e-14 -2.22859e-12 1.65692e-13 22.5635 14.6389 6.8847 -7.20092 -4.2091 10.0428 0.389094 -13.9152 -1.75378 -7.54415e-10 -3.08724e-10 -1.9392e-12 -1.29613e-09 -5.98498e-10 -3.42013e-11 -7.54409e-10 -3.08721e-10 -1.94794e-12 7.73091 5.47488 0.417314 -7.54414e-10 -3.08723e-10 -1.9392e-12 2.90554 0.965183 0.102902 -7.54405e-10 -3.08723e-10 -1.94096e-12 10.2786 0.731801 0.0259123 -7.54418e-10 -3.08723e-10 -1.93428e-12 2.22167 -0.733487 -0.20892 -3.27967e-14 -2.22859e-12 1.65362e-13 -23.4461 21.256 -8.94122 7.01107 -4.04551 -9.85662 -0.39142 -13.9571 1.75788 2.37398e-10 9.63288e-10 -8.27395e-10 4.37964e-10 1.64981e-09 -1.41447e-09 2.37392e-10 9.63287e-10 -8.27387e-10 -7.73091 5.47488 -0.417314 2.37396e-10 9.63288e-10 -8.27393e-10 -2.90554 0.965183 -0.102902 2.37388e-10 9.63286e-10 -8.27392e-10 -10.2786 0.731801 -0.0259123 2.37405e-10 9.63287e-10 -8.27395e-10 -2.22167 -0.733487 0.20892 -2.03217e-16 0.0 -3.88251e-19 -2.19653 -12.061 -1.0242 -0.0101193 6.59529 0.0434568 -0.510428 2.01128 -1.19797 2.03217e-16 0.0 3.88251e-19 1.81637 -15.5242 1.86419 -0.0254825 12.9453 -0.20405 0.369708 -1.46923 -0.45417
-60.6146 81.8395 25.9323 -26.9683 82.6524 -8.2804 -0.656131 5.74911 1.59076 2.44649 1.45472 0.470958 0.841205 1.39349 -0.643209 -4.32065 14.9634 1.39188 -0.0 0.0 0.0 -0.0 0.0 0.0 -6.53261e-14 -4.71072e-12 3.50271e-13 42.1228 29.3755 15.7709 -13.2292 -8.22597 20.8267 -0.242039 -28.5747 -3.98779 -1.52643e-09 -6.5428e-10 -2.18055e-11 -2.62135e-09 -1.26669e-09 -1.02091e-10 -1.52642e-09 -6.54278e-10 -2.18134e-11 7.73091 5.47488 0.417314 -1.52643e-09 -6.54279e-10 -2.18055e-11 2.90554 0.965183 0.102902 -1.52642e-09 -6.54279e-10 -2.18049e-11 10.2786 0.731801 0.0259123 -1.52643e-09 -6.54278e-10 -2.17987e-11 2.22167 -0.733487 -0.20892 -6.53543e-14 -4.71072e-12 3.50013e-13 -38.9611 41.785 -23.2691 12.9277 -7.92129 -20.4278 0.243702 -28.6648 4.00024 5.42818e-10 2.04197e-09 -1.75345e-09 9.96834e-10 3.49882e-09 -2.99813e-09 5.42811e-10 2.04197e-09 -1.75344e-09 -7.73091 5.47488 -0.417314 5.42816e-10 2.04197e-09 -1.75345e-09 -2.90554 0.965183 -0.102902 5.42811e-10 2.04197e-09 -1.75344e-09 -10.2786 0.731801 -0.0259123 5.42823e-10 2.04197e-09 -1.75344e-09 -2.22167 -0.733487 0.20892 -2.03217e-16 0.0 -3.88251e-19 -4.26464 -22.7655 -2.22775 -0.0515878 15.7642 0.176183 -0.60936 -0.0889779 -2.61052 2.03217e-16 0.0 3.88251e-19 6.14445 -25.0308 3.89822 -0.0128666 20.0664 -0.359507 0.170299 -3.32275 -0.865393
-60.6144 81.8378 25.9453 -27.262 82.6176 -8.5479 -0.370145 8.38266 2.35633 3.74681 2.11992 0.721606 1.24121 2.03157 -0.938936 -6.56075 21.815 2.1102 -0.0 0.0 0.0 -0.0 0.0 0.0 -8.83555e-14 -6.68567e-12 4.96479e-13 54.5398 40.9545 26.9007 -17.335 -11.0763 30.6774 -2.11185 -41.5615 -6.83233 -2.17004e-09 -9.25056e-10 -7.23613e-12 -3.72743e-09 -1.79356e-09 -1.05028e-10 -2.17003e-09 -9.25055e-10 -7.24328e-12 7.73091 5.47488 0.417314 -2.17004e-09 -9.25055e-10 -7.23613e-12 2.90554 0.965183 0.102902 -2.17003e-09 -9.25055e-10 -7.23346e-12 10.2786 0.731801 0.0259123 -2.17004e-09 -9.25053e-10 -7.22772e-12 2.22167 -0.733487 -0.20892 -8.83544e-14 -6.68566e-12 4.96285e-13 -38.6295 54.884 -47.247 17.0037 -10.701 -30.0707 2.12802 -41.6858 6.86036 8.05309e-10 2.89097e-09 -2.4836e-09 1.47469e-09 4.95133e-09 -4.24587e-09 8.05301e-10 2.89097e-09 -2.48359e-09 -7.73091 5.47488 -0.417314 8.05308e-10 2.89097e-09 -2.4836e-09 -2.90554 0.965183 -0.102902 8.05304e-10 2.89096e-09 -2.48359e-09 -10.2786 0.731801 -0.0259123 8.05312e-10 2.89097e-09 -2.48359e-09 -2.22167 -0.733487 0.20892 -2.03217e-16 0.0 -3.88251e-19 -6.55978 -32.2927 -3.53997 -0.127754 23.9427 0.308839 -0.785055 -1.95506 -3.87391 2.03217e-16 0.0 3.88251e-19 10.6939 -33.451 6.09328 0.0349923 26.4192 -0.515234 -0.0304182 -4.97765 -1.23358
